<?xml version="1.0" encoding="iso-8859-1"?>
<!-- Uploaded to: SVG Repo, www.svgrepo.com, Generator: SVG Repo Mixer Tools -->
<svg fill="#000000" height="800px" width="800px" version="1.1" id="Layer_1" xmlns="http://www.w3.org/2000/svg" xmlns:xlink="http://www.w3.org/1999/xlink" 
	 viewBox="0 0 512 512" xml:space="preserve">
<g>
	<g>
		<path d="M389.669,113.931h-85.241V48.429C304.429,21.725,282.703,0,256,0c-26.703,0-48.429,21.725-48.429,48.429v65.502h-85.241
			c-26.704,0-48.429,21.726-48.429,48.429s21.726,48.429,48.429,48.429h85.241v42.677c0,4.666,3.783,8.449,8.449,8.449
			c4.666,0,8.449-3.783,8.449-8.449v-51.126c0-4.666-3.783-8.449-8.449-8.449h-93.69c-17.386,0-31.53-14.144-31.53-31.53
			c0-17.386,14.145-31.53,31.53-31.53h93.69c4.666,0,8.449-3.783,8.449-8.449V48.429c0-17.386,14.145-31.53,31.53-31.53
			s31.53,14.144,31.53,31.53v73.951c0,4.666,3.783,8.449,8.449,8.449h93.69c17.386,0,31.53,14.145,31.53,31.53
			s-14.145,31.53-31.53,31.53h-93.69c-4.666,0-8.449,3.783-8.449,8.449v261.232c0,17.386-14.145,31.53-31.53,31.53
			s-31.53-14.145-31.53-31.53V288.95c0-4.666-3.783-8.449-8.449-8.449c-4.666,0-8.449,3.783-8.449,8.449v174.621
			C207.571,490.275,229.297,512,256,512c26.703,0,48.429-21.726,48.429-48.429V210.789h85.241c26.704,0,48.429-21.725,48.429-48.429
			S416.374,113.931,389.669,113.931z"/>
	</g>
</g>
<g>
	<g>
		<path d="M388.574,153.911h-52.383c-4.666,0-8.449,3.783-8.449,8.449s3.783,8.449,8.449,8.449h52.383
			c4.666,0,8.449-3.783,8.449-8.449S393.241,153.911,388.574,153.911z"/>
	</g>
</g>
<g>
	<g>
		<path d="M305.777,153.912H264.45V40.555c-0.001-4.667-3.784-8.449-8.45-8.449c-4.666,0-8.449,3.783-8.449,8.449v113.356H123.426
			c-4.666,0-8.449,3.783-8.449,8.449c0,4.666,3.783,8.449,8.449,8.449h124.126v300.636c0,4.666,3.783,8.449,8.449,8.449
			c4.666,0,8.449-3.783,8.449-8.449V170.81h41.327c4.666,0,8.449-3.783,8.449-8.449
			C314.227,157.695,310.444,153.912,305.777,153.912z"/>
	</g>
</g>
</svg>