<?xml version="1.0" ?>
<!-- Uploaded to: SVG Repo, www.svgrepo.com, Generator: SVG Repo Mixer Tools -->
<svg width="800px" height="800px" viewBox="0 0 64 64" xmlns="http://www.w3.org/2000/svg">
<defs>
<style>.cls-1{fill:none;stroke:#000000;stroke-linejoin:round;stroke-width:2px;}</style>
</defs>
<title/>
<g data-name="Layer 8" id="Layer_8">
<path class="cls-1" d="M62,62H2V54H9.34a4,4,0,0,1,2.83,1.17L15,58l2.89-5.79A4,4,0,0,1,21.47,50H42.53a4,4,0,0,1,3.58,2.21L49,58l2.83-2.83A4,4,0,0,1,54.66,54H62Z"/>
<polyline class="cls-1" points="21 50 27 32 23 13 32 27 32 16 46 2 38 17 39 32 42 50"/>
<polyline class="cls-1" points="38 24 49 24 56 17 51 12"/>
<polyline class="cls-1" points="54 15 60 9 60 2"/>
<polyline class="cls-1" points="49 24 53 28 58 28 62 24"/>
<polyline class="cls-1" points="43 24 43 20 47 16"/>
<polyline class="cls-1" points="47 24 47 29 44 32"/>
<polyline class="cls-1" points="37 11 33 7 33 2"/>
<polyline class="cls-1" points="33 6 24 6 21 9"/>
<polyline class="cls-1" points="27 31 15 19 7 19 2 14"/>
<polyline class="cls-1" points="20 24 16 28 11 28"/>
<polyline class="cls-1" points="11 19 11 14 14 11"/>
<polyline class="cls-1" points="6 54 6 46 2 46 2 42 6 42 6 38 10 38 10 42 14 42 14 46 10 46 10 54"/>
<polyline class="cls-1" points="54 54 54 46 50 46 50 42 54 42 54 38 58 38 58 42 62 42 62 46 58 46 58 54"/>
</g>
</svg>